<svg width="188" height="172" viewBox="0 0 188 172" fill="none" xmlns="http://www.w3.org/2000/svg">
<ellipse cx="0.752" cy="171.211" rx="0.752" ry="0.788991" fill="white"/>
<ellipse cx="6.76799" cy="171.211" rx="0.752" ry="0.788991" fill="white"/>
<ellipse cx="12.784" cy="171.211" rx="0.752" ry="0.788991" fill="white"/>
<ellipse cx="18.8" cy="171.211" rx="0.752" ry="0.788991" fill="white"/>
<ellipse cx="24.816" cy="171.211" rx="0.752" ry="0.788991" fill="white"/>
<ellipse cx="30.832" cy="171.211" rx="0.752" ry="0.788991" fill="white"/>
<ellipse cx="36.8479" cy="171.211" rx="0.752" ry="0.788991" fill="white"/>
<ellipse cx="42.8641" cy="171.211" rx="0.752" ry="0.788991" fill="white"/>
<ellipse cx="48.8801" cy="171.211" rx="0.752" ry="0.788991" fill="white"/>
<ellipse cx="54.896" cy="171.211" rx="0.752" ry="0.788991" fill="white"/>
<ellipse cx="60.912" cy="171.211" rx="0.752" ry="0.788991" fill="white"/>
<ellipse cx="66.928" cy="171.211" rx="0.752" ry="0.788991" fill="white"/>
<ellipse cx="72.944" cy="171.211" rx="0.752" ry="0.788991" fill="white"/>
<ellipse cx="78.96" cy="171.211" rx="0.752" ry="0.788991" fill="white"/>
<ellipse cx="84.976" cy="171.211" rx="0.752" ry="0.788991" fill="white"/>
<ellipse cx="90.992" cy="171.211" rx="0.752" ry="0.788991" fill="white"/>
<ellipse cx="97.008" cy="171.211" rx="0.752" ry="0.788991" fill="white"/>
<ellipse cx="103.024" cy="171.211" rx="0.752" ry="0.788991" fill="white"/>
<ellipse cx="109.04" cy="171.211" rx="0.752" ry="0.788991" fill="white"/>
<ellipse cx="115.056" cy="171.211" rx="0.752" ry="0.788991" fill="white"/>
<ellipse cx="121.072" cy="171.211" rx="0.752" ry="0.788991" fill="white"/>
<ellipse cx="127.088" cy="171.211" rx="0.752" ry="0.788991" fill="white"/>
<ellipse cx="133.104" cy="171.211" rx="0.752" ry="0.788991" fill="white"/>
<ellipse cx="139.12" cy="171.211" rx="0.752" ry="0.788991" fill="white"/>
<ellipse cx="145.136" cy="171.211" rx="0.752" ry="0.788991" fill="white"/>
<ellipse cx="151.152" cy="171.211" rx="0.752" ry="0.788991" fill="white"/>
<ellipse cx="157.168" cy="171.211" rx="0.752" ry="0.788991" fill="white"/>
<ellipse cx="163.184" cy="171.211" rx="0.752" ry="0.788991" fill="white"/>
<ellipse cx="169.2" cy="171.211" rx="0.752" ry="0.788991" fill="white"/>
<ellipse cx="175.216" cy="171.211" rx="0.752" ry="0.788991" fill="white"/>
<ellipse cx="181.232" cy="171.211" rx="0.752" ry="0.788991" fill="white"/>
<ellipse cx="187.248" cy="171.211" rx="0.752" ry="0.788991" fill="white"/>
<ellipse cx="0.752" cy="164.899" rx="0.752" ry="0.788991" fill="white"/>
<ellipse cx="6.76799" cy="164.899" rx="0.752" ry="0.788991" fill="white"/>
<ellipse cx="12.784" cy="164.899" rx="0.752" ry="0.788991" fill="white"/>
<ellipse cx="18.8" cy="164.899" rx="0.752" ry="0.788991" fill="white"/>
<ellipse cx="24.816" cy="164.899" rx="0.752" ry="0.788991" fill="white"/>
<ellipse cx="30.832" cy="164.899" rx="0.752" ry="0.788991" fill="white"/>
<ellipse cx="36.8479" cy="164.899" rx="0.752" ry="0.788991" fill="white"/>
<ellipse cx="42.8641" cy="164.899" rx="0.752" ry="0.788991" fill="white"/>
<ellipse cx="48.8801" cy="164.899" rx="0.752" ry="0.788991" fill="white"/>
<ellipse cx="54.896" cy="164.899" rx="0.752" ry="0.788991" fill="white"/>
<ellipse cx="60.912" cy="164.899" rx="0.752" ry="0.788991" fill="white"/>
<ellipse cx="66.928" cy="164.899" rx="0.752" ry="0.788991" fill="white"/>
<ellipse cx="72.944" cy="164.899" rx="0.752" ry="0.788991" fill="white"/>
<ellipse cx="78.96" cy="164.899" rx="0.752" ry="0.788991" fill="white"/>
<ellipse cx="84.976" cy="164.899" rx="0.752" ry="0.788991" fill="white"/>
<ellipse cx="90.992" cy="164.899" rx="0.752" ry="0.788991" fill="white"/>
<ellipse cx="97.008" cy="164.899" rx="0.752" ry="0.788991" fill="white"/>
<ellipse cx="103.024" cy="164.899" rx="0.752" ry="0.788991" fill="white"/>
<ellipse cx="109.04" cy="164.899" rx="0.752" ry="0.788991" fill="white"/>
<ellipse cx="115.056" cy="164.899" rx="0.752" ry="0.788991" fill="white"/>
<ellipse cx="121.072" cy="164.899" rx="0.752" ry="0.788991" fill="white"/>
<ellipse cx="127.088" cy="164.899" rx="0.752" ry="0.788991" fill="white"/>
<ellipse cx="133.104" cy="164.899" rx="0.752" ry="0.788991" fill="white"/>
<ellipse cx="139.12" cy="164.899" rx="0.752" ry="0.788991" fill="white"/>
<ellipse cx="145.136" cy="164.899" rx="0.752" ry="0.788991" fill="white"/>
<ellipse cx="151.152" cy="164.899" rx="0.752" ry="0.788991" fill="white"/>
<ellipse cx="157.168" cy="164.899" rx="0.752" ry="0.788991" fill="white"/>
<ellipse cx="163.184" cy="164.899" rx="0.752" ry="0.788991" fill="white"/>
<ellipse cx="169.2" cy="164.899" rx="0.752" ry="0.788991" fill="white"/>
<ellipse cx="175.216" cy="164.899" rx="0.752" ry="0.788991" fill="white"/>
<ellipse cx="181.232" cy="164.899" rx="0.752" ry="0.788991" fill="white"/>
<ellipse cx="187.248" cy="164.899" rx="0.752" ry="0.788991" fill="white"/>
<ellipse cx="0.752" cy="158.587" rx="0.752" ry="0.788991" fill="white"/>
<ellipse cx="6.76799" cy="158.587" rx="0.752" ry="0.788991" fill="white"/>
<ellipse cx="12.784" cy="158.587" rx="0.752" ry="0.788991" fill="white"/>
<ellipse cx="18.8" cy="158.587" rx="0.752" ry="0.788991" fill="white"/>
<ellipse cx="24.816" cy="158.587" rx="0.752" ry="0.788991" fill="white"/>
<ellipse cx="30.832" cy="158.587" rx="0.752" ry="0.788991" fill="white"/>
<ellipse cx="36.8479" cy="158.587" rx="0.752" ry="0.788991" fill="white"/>
<ellipse cx="42.8641" cy="158.587" rx="0.752" ry="0.788991" fill="white"/>
<ellipse cx="48.8801" cy="158.587" rx="0.752" ry="0.788991" fill="white"/>
<ellipse cx="54.896" cy="158.587" rx="0.752" ry="0.788991" fill="white"/>
<ellipse cx="60.912" cy="158.587" rx="0.752" ry="0.788991" fill="white"/>
<ellipse cx="66.928" cy="158.587" rx="0.752" ry="0.788991" fill="white"/>
<ellipse cx="72.944" cy="158.587" rx="0.752" ry="0.788991" fill="white"/>
<ellipse cx="78.96" cy="158.587" rx="0.752" ry="0.788991" fill="white"/>
<ellipse cx="84.976" cy="158.587" rx="0.752" ry="0.788991" fill="white"/>
<ellipse cx="90.992" cy="158.587" rx="0.752" ry="0.788991" fill="white"/>
<ellipse cx="97.008" cy="158.587" rx="0.752" ry="0.788991" fill="white"/>
<ellipse cx="103.024" cy="158.587" rx="0.752" ry="0.788991" fill="white"/>
<ellipse cx="109.04" cy="158.587" rx="0.752" ry="0.788991" fill="white"/>
<ellipse cx="115.056" cy="158.587" rx="0.752" ry="0.788991" fill="white"/>
<ellipse cx="121.072" cy="158.587" rx="0.752" ry="0.788991" fill="white"/>
<ellipse cx="127.088" cy="158.587" rx="0.752" ry="0.788991" fill="white"/>
<ellipse cx="133.104" cy="158.587" rx="0.752" ry="0.788991" fill="white"/>
<ellipse cx="139.12" cy="158.587" rx="0.752" ry="0.788991" fill="white"/>
<ellipse cx="145.136" cy="158.587" rx="0.752" ry="0.788991" fill="white"/>
<ellipse cx="151.152" cy="158.587" rx="0.752" ry="0.788991" fill="white"/>
<ellipse cx="157.168" cy="158.587" rx="0.752" ry="0.788991" fill="white"/>
<ellipse cx="163.184" cy="158.587" rx="0.752" ry="0.788991" fill="white"/>
<ellipse cx="169.2" cy="158.587" rx="0.752" ry="0.788991" fill="white"/>
<ellipse cx="175.216" cy="158.587" rx="0.752" ry="0.788991" fill="white"/>
<ellipse cx="181.232" cy="158.587" rx="0.752" ry="0.788991" fill="white"/>
<ellipse cx="187.248" cy="158.587" rx="0.752" ry="0.788991" fill="white"/>
<ellipse cx="0.752" cy="152.275" rx="0.752" ry="0.788991" fill="white"/>
<ellipse cx="6.76799" cy="152.275" rx="0.752" ry="0.788991" fill="white"/>
<ellipse cx="12.784" cy="152.275" rx="0.752" ry="0.788991" fill="white"/>
<ellipse cx="18.8" cy="152.275" rx="0.752" ry="0.788991" fill="white"/>
<ellipse cx="24.816" cy="152.275" rx="0.752" ry="0.788991" fill="white"/>
<ellipse cx="30.832" cy="152.275" rx="0.752" ry="0.788991" fill="white"/>
<ellipse cx="36.8479" cy="152.275" rx="0.752" ry="0.788991" fill="white"/>
<ellipse cx="42.8641" cy="152.275" rx="0.752" ry="0.788991" fill="white"/>
<ellipse cx="48.8801" cy="152.275" rx="0.752" ry="0.788991" fill="white"/>
<ellipse cx="54.896" cy="152.275" rx="0.752" ry="0.788991" fill="white"/>
<ellipse cx="60.912" cy="152.275" rx="0.752" ry="0.788991" fill="white"/>
<ellipse cx="66.928" cy="152.275" rx="0.752" ry="0.788991" fill="white"/>
<ellipse cx="72.944" cy="152.275" rx="0.752" ry="0.788991" fill="white"/>
<ellipse cx="78.96" cy="152.275" rx="0.752" ry="0.788991" fill="white"/>
<ellipse cx="84.976" cy="152.275" rx="0.752" ry="0.788991" fill="white"/>
<ellipse cx="90.992" cy="152.275" rx="0.752" ry="0.788991" fill="white"/>
<ellipse cx="97.008" cy="152.275" rx="0.752" ry="0.788991" fill="white"/>
<ellipse cx="103.024" cy="152.275" rx="0.752" ry="0.788991" fill="white"/>
<ellipse cx="109.04" cy="152.275" rx="0.752" ry="0.788991" fill="white"/>
<ellipse cx="115.056" cy="152.275" rx="0.752" ry="0.788991" fill="white"/>
<ellipse cx="121.072" cy="152.275" rx="0.752" ry="0.788991" fill="white"/>
<ellipse cx="127.088" cy="152.275" rx="0.752" ry="0.788991" fill="white"/>
<ellipse cx="133.104" cy="152.275" rx="0.752" ry="0.788991" fill="white"/>
<ellipse cx="139.12" cy="152.275" rx="0.752" ry="0.788991" fill="white"/>
<ellipse cx="145.136" cy="152.275" rx="0.752" ry="0.788991" fill="white"/>
<ellipse cx="151.152" cy="152.275" rx="0.752" ry="0.788991" fill="white"/>
<ellipse cx="157.168" cy="152.275" rx="0.752" ry="0.788991" fill="white"/>
<ellipse cx="163.184" cy="152.275" rx="0.752" ry="0.788991" fill="white"/>
<ellipse cx="169.2" cy="152.275" rx="0.752" ry="0.788991" fill="white"/>
<ellipse cx="175.216" cy="152.275" rx="0.752" ry="0.788991" fill="white"/>
<ellipse cx="181.232" cy="152.275" rx="0.752" ry="0.788991" fill="white"/>
<ellipse cx="187.248" cy="152.275" rx="0.752" ry="0.788991" fill="white"/>
<ellipse cx="0.752" cy="145.963" rx="0.752" ry="0.788991" fill="white"/>
<ellipse cx="6.76799" cy="145.963" rx="0.752" ry="0.788991" fill="white"/>
<ellipse cx="12.784" cy="145.963" rx="0.752" ry="0.788991" fill="white"/>
<ellipse cx="18.8" cy="145.963" rx="0.752" ry="0.788991" fill="white"/>
<ellipse cx="24.816" cy="145.963" rx="0.752" ry="0.788991" fill="white"/>
<ellipse cx="30.832" cy="145.963" rx="0.752" ry="0.788991" fill="white"/>
<ellipse cx="36.8479" cy="145.963" rx="0.752" ry="0.788991" fill="white"/>
<ellipse cx="42.8641" cy="145.963" rx="0.752" ry="0.788991" fill="white"/>
<ellipse cx="48.8801" cy="145.963" rx="0.752" ry="0.788991" fill="white"/>
<ellipse cx="54.896" cy="145.963" rx="0.752" ry="0.788991" fill="white"/>
<ellipse cx="60.912" cy="145.963" rx="0.752" ry="0.788991" fill="white"/>
<ellipse cx="66.928" cy="145.963" rx="0.752" ry="0.788991" fill="white"/>
<ellipse cx="72.944" cy="145.963" rx="0.752" ry="0.788991" fill="white"/>
<ellipse cx="78.96" cy="145.963" rx="0.752" ry="0.788991" fill="white"/>
<ellipse cx="84.976" cy="145.963" rx="0.752" ry="0.788991" fill="white"/>
<ellipse cx="90.992" cy="145.963" rx="0.752" ry="0.788991" fill="white"/>
<ellipse cx="97.008" cy="145.963" rx="0.752" ry="0.788991" fill="white"/>
<ellipse cx="103.024" cy="145.963" rx="0.752" ry="0.788991" fill="white"/>
<ellipse cx="109.04" cy="145.963" rx="0.752" ry="0.788991" fill="white"/>
<ellipse cx="115.056" cy="145.963" rx="0.752" ry="0.788991" fill="white"/>
<ellipse cx="121.072" cy="145.963" rx="0.752" ry="0.788991" fill="white"/>
<ellipse cx="127.088" cy="145.963" rx="0.752" ry="0.788991" fill="white"/>
<ellipse cx="133.104" cy="145.963" rx="0.752" ry="0.788991" fill="white"/>
<ellipse cx="139.12" cy="145.963" rx="0.752" ry="0.788991" fill="white"/>
<ellipse cx="145.136" cy="145.963" rx="0.752" ry="0.788991" fill="white"/>
<ellipse cx="151.152" cy="145.963" rx="0.752" ry="0.788991" fill="white"/>
<ellipse cx="157.168" cy="145.963" rx="0.752" ry="0.788991" fill="white"/>
<ellipse cx="163.184" cy="145.963" rx="0.752" ry="0.788991" fill="white"/>
<ellipse cx="169.2" cy="145.963" rx="0.752" ry="0.788991" fill="white"/>
<ellipse cx="175.216" cy="145.963" rx="0.752" ry="0.788991" fill="white"/>
<ellipse cx="181.232" cy="145.963" rx="0.752" ry="0.788991" fill="white"/>
<ellipse cx="187.248" cy="145.963" rx="0.752" ry="0.788991" fill="white"/>
<ellipse cx="0.752" cy="139.651" rx="0.752" ry="0.788991" fill="white"/>
<ellipse cx="6.76799" cy="139.651" rx="0.752" ry="0.788991" fill="white"/>
<ellipse cx="12.784" cy="139.651" rx="0.752" ry="0.788991" fill="white"/>
<ellipse cx="18.8" cy="139.651" rx="0.752" ry="0.788991" fill="white"/>
<ellipse cx="24.816" cy="139.651" rx="0.752" ry="0.788991" fill="white"/>
<ellipse cx="30.832" cy="139.651" rx="0.752" ry="0.788991" fill="white"/>
<ellipse cx="36.8479" cy="139.651" rx="0.752" ry="0.788991" fill="white"/>
<ellipse cx="42.8641" cy="139.651" rx="0.752" ry="0.788991" fill="white"/>
<ellipse cx="48.8801" cy="139.651" rx="0.752" ry="0.788991" fill="white"/>
<ellipse cx="54.896" cy="139.651" rx="0.752" ry="0.788991" fill="white"/>
<ellipse cx="60.912" cy="139.651" rx="0.752" ry="0.788991" fill="white"/>
<ellipse cx="66.928" cy="139.651" rx="0.752" ry="0.788991" fill="white"/>
<ellipse cx="72.944" cy="139.651" rx="0.752" ry="0.788991" fill="white"/>
<ellipse cx="78.96" cy="139.651" rx="0.752" ry="0.788991" fill="white"/>
<ellipse cx="84.976" cy="139.651" rx="0.752" ry="0.788991" fill="white"/>
<ellipse cx="90.992" cy="139.651" rx="0.752" ry="0.788991" fill="white"/>
<ellipse cx="97.008" cy="139.651" rx="0.752" ry="0.788991" fill="white"/>
<ellipse cx="103.024" cy="139.651" rx="0.752" ry="0.788991" fill="white"/>
<ellipse cx="109.04" cy="139.651" rx="0.752" ry="0.788991" fill="white"/>
<ellipse cx="115.056" cy="139.651" rx="0.752" ry="0.788991" fill="white"/>
<ellipse cx="121.072" cy="139.651" rx="0.752" ry="0.788991" fill="white"/>
<ellipse cx="127.088" cy="139.651" rx="0.752" ry="0.788991" fill="white"/>
<ellipse cx="133.104" cy="139.651" rx="0.752" ry="0.788991" fill="white"/>
<ellipse cx="139.12" cy="139.651" rx="0.752" ry="0.788991" fill="white"/>
<ellipse cx="145.136" cy="139.651" rx="0.752" ry="0.788991" fill="white"/>
<ellipse cx="151.152" cy="139.651" rx="0.752" ry="0.788991" fill="white"/>
<ellipse cx="157.168" cy="139.651" rx="0.752" ry="0.788991" fill="white"/>
<ellipse cx="163.184" cy="139.651" rx="0.752" ry="0.788991" fill="white"/>
<ellipse cx="169.2" cy="139.651" rx="0.752" ry="0.788991" fill="white"/>
<ellipse cx="175.216" cy="139.651" rx="0.752" ry="0.788991" fill="white"/>
<ellipse cx="181.232" cy="139.651" rx="0.752" ry="0.788991" fill="white"/>
<ellipse cx="187.248" cy="139.651" rx="0.752" ry="0.788991" fill="white"/>
<ellipse cx="0.752" cy="133.339" rx="0.752" ry="0.788991" fill="white"/>
<ellipse cx="6.76799" cy="133.339" rx="0.752" ry="0.788991" fill="white"/>
<ellipse cx="12.784" cy="133.339" rx="0.752" ry="0.788991" fill="white"/>
<ellipse cx="18.8" cy="133.339" rx="0.752" ry="0.788991" fill="white"/>
<ellipse cx="24.816" cy="133.339" rx="0.752" ry="0.788991" fill="white"/>
<ellipse cx="30.832" cy="133.339" rx="0.752" ry="0.788991" fill="white"/>
<ellipse cx="36.8479" cy="133.339" rx="0.752" ry="0.788991" fill="white"/>
<ellipse cx="42.8641" cy="133.339" rx="0.752" ry="0.788991" fill="white"/>
<ellipse cx="48.8801" cy="133.339" rx="0.752" ry="0.788991" fill="white"/>
<ellipse cx="54.896" cy="133.339" rx="0.752" ry="0.788991" fill="white"/>
<ellipse cx="60.912" cy="133.339" rx="0.752" ry="0.788991" fill="white"/>
<ellipse cx="66.928" cy="133.339" rx="0.752" ry="0.788991" fill="white"/>
<ellipse cx="72.944" cy="133.339" rx="0.752" ry="0.788991" fill="white"/>
<ellipse cx="78.96" cy="133.339" rx="0.752" ry="0.788991" fill="white"/>
<ellipse cx="84.976" cy="133.339" rx="0.752" ry="0.788991" fill="white"/>
<ellipse cx="90.992" cy="133.339" rx="0.752" ry="0.788991" fill="white"/>
<ellipse cx="97.008" cy="133.339" rx="0.752" ry="0.788991" fill="white"/>
<ellipse cx="103.024" cy="133.339" rx="0.752" ry="0.788991" fill="white"/>
<ellipse cx="109.04" cy="133.339" rx="0.752" ry="0.788991" fill="white"/>
<ellipse cx="115.056" cy="133.339" rx="0.752" ry="0.788991" fill="white"/>
<ellipse cx="121.072" cy="133.339" rx="0.752" ry="0.788991" fill="white"/>
<ellipse cx="127.088" cy="133.339" rx="0.752" ry="0.788991" fill="white"/>
<ellipse cx="133.104" cy="133.339" rx="0.752" ry="0.788991" fill="white"/>
<ellipse cx="139.12" cy="133.339" rx="0.752" ry="0.788991" fill="white"/>
<ellipse cx="145.136" cy="133.339" rx="0.752" ry="0.788991" fill="white"/>
<ellipse cx="151.152" cy="133.339" rx="0.752" ry="0.788991" fill="white"/>
<ellipse cx="157.168" cy="133.339" rx="0.752" ry="0.788991" fill="white"/>
<ellipse cx="163.184" cy="133.339" rx="0.752" ry="0.788991" fill="white"/>
<ellipse cx="169.2" cy="133.339" rx="0.752" ry="0.788991" fill="white"/>
<ellipse cx="175.216" cy="133.339" rx="0.752" ry="0.788991" fill="white"/>
<ellipse cx="181.232" cy="133.339" rx="0.752" ry="0.788991" fill="white"/>
<ellipse cx="187.248" cy="133.339" rx="0.752" ry="0.788991" fill="white"/>
<ellipse cx="0.752" cy="127.028" rx="0.752" ry="0.788991" fill="white"/>
<ellipse cx="6.76799" cy="127.028" rx="0.752" ry="0.788991" fill="white"/>
<ellipse cx="12.784" cy="127.028" rx="0.752" ry="0.788991" fill="white"/>
<ellipse cx="18.8" cy="127.028" rx="0.752" ry="0.788991" fill="white"/>
<ellipse cx="24.816" cy="127.028" rx="0.752" ry="0.788991" fill="white"/>
<ellipse cx="30.832" cy="127.028" rx="0.752" ry="0.788991" fill="white"/>
<ellipse cx="36.8479" cy="127.028" rx="0.752" ry="0.788991" fill="white"/>
<ellipse cx="42.8641" cy="127.028" rx="0.752" ry="0.788991" fill="white"/>
<ellipse cx="48.8801" cy="127.028" rx="0.752" ry="0.788991" fill="white"/>
<ellipse cx="54.896" cy="127.028" rx="0.752" ry="0.788991" fill="white"/>
<ellipse cx="60.912" cy="127.028" rx="0.752" ry="0.788991" fill="white"/>
<ellipse cx="66.928" cy="127.028" rx="0.752" ry="0.788991" fill="white"/>
<ellipse cx="72.944" cy="127.028" rx="0.752" ry="0.788991" fill="white"/>
<ellipse cx="78.96" cy="127.028" rx="0.752" ry="0.788991" fill="white"/>
<ellipse cx="84.976" cy="127.028" rx="0.752" ry="0.788991" fill="white"/>
<ellipse cx="90.992" cy="127.028" rx="0.752" ry="0.788991" fill="white"/>
<ellipse cx="97.008" cy="127.028" rx="0.752" ry="0.788991" fill="white"/>
<ellipse cx="103.024" cy="127.028" rx="0.752" ry="0.788991" fill="white"/>
<ellipse cx="109.04" cy="127.028" rx="0.752" ry="0.788991" fill="white"/>
<ellipse cx="115.056" cy="127.028" rx="0.752" ry="0.788991" fill="white"/>
<ellipse cx="121.072" cy="127.028" rx="0.752" ry="0.788991" fill="white"/>
<ellipse cx="127.088" cy="127.028" rx="0.752" ry="0.788991" fill="white"/>
<ellipse cx="133.104" cy="127.028" rx="0.752" ry="0.788991" fill="white"/>
<ellipse cx="139.12" cy="127.028" rx="0.752" ry="0.788991" fill="white"/>
<ellipse cx="145.136" cy="127.028" rx="0.752" ry="0.788991" fill="white"/>
<ellipse cx="151.152" cy="127.028" rx="0.752" ry="0.788991" fill="white"/>
<ellipse cx="157.168" cy="127.028" rx="0.752" ry="0.788991" fill="white"/>
<ellipse cx="163.184" cy="127.028" rx="0.752" ry="0.788991" fill="white"/>
<ellipse cx="169.2" cy="127.028" rx="0.752" ry="0.788991" fill="white"/>
<ellipse cx="175.216" cy="127.028" rx="0.752" ry="0.788991" fill="white"/>
<ellipse cx="181.232" cy="127.028" rx="0.752" ry="0.788991" fill="white"/>
<ellipse cx="187.248" cy="127.028" rx="0.752" ry="0.788991" fill="white"/>
<ellipse cx="0.752" cy="120.716" rx="0.752" ry="0.788991" fill="white"/>
<ellipse cx="6.76799" cy="120.716" rx="0.752" ry="0.788991" fill="white"/>
<ellipse cx="12.784" cy="120.716" rx="0.752" ry="0.788991" fill="white"/>
<ellipse cx="18.8" cy="120.716" rx="0.752" ry="0.788991" fill="white"/>
<ellipse cx="24.816" cy="120.716" rx="0.752" ry="0.788991" fill="white"/>
<ellipse cx="30.832" cy="120.716" rx="0.752" ry="0.788991" fill="white"/>
<ellipse cx="36.8479" cy="120.716" rx="0.752" ry="0.788991" fill="white"/>
<ellipse cx="42.8641" cy="120.716" rx="0.752" ry="0.788991" fill="white"/>
<ellipse cx="48.8801" cy="120.716" rx="0.752" ry="0.788991" fill="white"/>
<ellipse cx="54.896" cy="120.716" rx="0.752" ry="0.788991" fill="white"/>
<ellipse cx="60.912" cy="120.716" rx="0.752" ry="0.788991" fill="white"/>
<ellipse cx="66.928" cy="120.716" rx="0.752" ry="0.788991" fill="white"/>
<ellipse cx="72.944" cy="120.716" rx="0.752" ry="0.788991" fill="white"/>
<ellipse cx="78.96" cy="120.716" rx="0.752" ry="0.788991" fill="white"/>
<ellipse cx="84.976" cy="120.716" rx="0.752" ry="0.788991" fill="white"/>
<ellipse cx="90.992" cy="120.716" rx="0.752" ry="0.788991" fill="white"/>
<ellipse cx="97.008" cy="120.716" rx="0.752" ry="0.788991" fill="white"/>
<ellipse cx="103.024" cy="120.716" rx="0.752" ry="0.788991" fill="white"/>
<ellipse cx="109.04" cy="120.716" rx="0.752" ry="0.788991" fill="white"/>
<ellipse cx="115.056" cy="120.716" rx="0.752" ry="0.788991" fill="white"/>
<ellipse cx="121.072" cy="120.716" rx="0.752" ry="0.788991" fill="white"/>
<ellipse cx="127.088" cy="120.716" rx="0.752" ry="0.788991" fill="white"/>
<ellipse cx="133.104" cy="120.716" rx="0.752" ry="0.788991" fill="white"/>
<ellipse cx="139.12" cy="120.716" rx="0.752" ry="0.788991" fill="white"/>
<ellipse cx="145.136" cy="120.716" rx="0.752" ry="0.788991" fill="white"/>
<ellipse cx="151.152" cy="120.716" rx="0.752" ry="0.788991" fill="white"/>
<ellipse cx="157.168" cy="120.716" rx="0.752" ry="0.788991" fill="white"/>
<ellipse cx="163.184" cy="120.716" rx="0.752" ry="0.788991" fill="white"/>
<ellipse cx="169.2" cy="120.716" rx="0.752" ry="0.788991" fill="white"/>
<ellipse cx="175.216" cy="120.716" rx="0.752" ry="0.788991" fill="white"/>
<ellipse cx="181.232" cy="120.716" rx="0.752" ry="0.788991" fill="white"/>
<ellipse cx="187.248" cy="120.716" rx="0.752" ry="0.788991" fill="white"/>
<ellipse cx="0.752" cy="114.404" rx="0.752" ry="0.788991" fill="white"/>
<ellipse cx="6.76799" cy="114.404" rx="0.752" ry="0.788991" fill="white"/>
<ellipse cx="12.784" cy="114.404" rx="0.752" ry="0.788991" fill="white"/>
<ellipse cx="18.8" cy="114.404" rx="0.752" ry="0.788991" fill="white"/>
<ellipse cx="24.816" cy="114.404" rx="0.752" ry="0.788991" fill="white"/>
<ellipse cx="30.832" cy="114.404" rx="0.752" ry="0.788991" fill="white"/>
<ellipse cx="36.8479" cy="114.404" rx="0.752" ry="0.788991" fill="white"/>
<ellipse cx="42.8641" cy="114.404" rx="0.752" ry="0.788991" fill="white"/>
<ellipse cx="48.8801" cy="114.404" rx="0.752" ry="0.788991" fill="white"/>
<ellipse cx="54.896" cy="114.404" rx="0.752" ry="0.788991" fill="white"/>
<ellipse cx="60.912" cy="114.404" rx="0.752" ry="0.788991" fill="white"/>
<ellipse cx="66.928" cy="114.404" rx="0.752" ry="0.788991" fill="white"/>
<ellipse cx="72.944" cy="114.404" rx="0.752" ry="0.788991" fill="white"/>
<ellipse cx="78.96" cy="114.404" rx="0.752" ry="0.788991" fill="white"/>
<ellipse cx="84.976" cy="114.404" rx="0.752" ry="0.788991" fill="white"/>
<ellipse cx="90.992" cy="114.404" rx="0.752" ry="0.788991" fill="white"/>
<ellipse cx="97.008" cy="114.404" rx="0.752" ry="0.788991" fill="white"/>
<ellipse cx="103.024" cy="114.404" rx="0.752" ry="0.788991" fill="white"/>
<ellipse cx="109.04" cy="114.404" rx="0.752" ry="0.788991" fill="white"/>
<ellipse cx="115.056" cy="114.404" rx="0.752" ry="0.788991" fill="white"/>
<ellipse cx="121.072" cy="114.404" rx="0.752" ry="0.788991" fill="white"/>
<ellipse cx="127.088" cy="114.404" rx="0.752" ry="0.788991" fill="white"/>
<ellipse cx="133.104" cy="114.404" rx="0.752" ry="0.788991" fill="white"/>
<ellipse cx="139.12" cy="114.404" rx="0.752" ry="0.788991" fill="white"/>
<ellipse cx="145.136" cy="114.404" rx="0.752" ry="0.788991" fill="white"/>
<ellipse cx="151.152" cy="114.404" rx="0.752" ry="0.788991" fill="white"/>
<ellipse cx="157.168" cy="114.404" rx="0.752" ry="0.788991" fill="white"/>
<ellipse cx="163.184" cy="114.404" rx="0.752" ry="0.788991" fill="white"/>
<ellipse cx="169.2" cy="114.404" rx="0.752" ry="0.788991" fill="white"/>
<ellipse cx="175.216" cy="114.404" rx="0.752" ry="0.788991" fill="white"/>
<ellipse cx="181.232" cy="114.404" rx="0.752" ry="0.788991" fill="white"/>
<ellipse cx="187.248" cy="114.404" rx="0.752" ry="0.788991" fill="white"/>
<ellipse cx="0.752" cy="108.092" rx="0.752" ry="0.788991" fill="white"/>
<ellipse cx="6.76799" cy="108.092" rx="0.752" ry="0.788991" fill="white"/>
<ellipse cx="12.784" cy="108.092" rx="0.752" ry="0.788991" fill="white"/>
<ellipse cx="18.8" cy="108.092" rx="0.752" ry="0.788991" fill="white"/>
<ellipse cx="24.816" cy="108.092" rx="0.752" ry="0.788991" fill="white"/>
<ellipse cx="30.832" cy="108.092" rx="0.752" ry="0.788991" fill="white"/>
<ellipse cx="36.8479" cy="108.092" rx="0.752" ry="0.788991" fill="white"/>
<ellipse cx="42.8641" cy="108.092" rx="0.752" ry="0.788991" fill="white"/>
<ellipse cx="48.8801" cy="108.092" rx="0.752" ry="0.788991" fill="white"/>
<ellipse cx="54.896" cy="108.092" rx="0.752" ry="0.788991" fill="white"/>
<ellipse cx="60.912" cy="108.092" rx="0.752" ry="0.788991" fill="white"/>
<ellipse cx="66.928" cy="108.092" rx="0.752" ry="0.788991" fill="white"/>
<ellipse cx="72.944" cy="108.092" rx="0.752" ry="0.788991" fill="white"/>
<ellipse cx="78.96" cy="108.092" rx="0.752" ry="0.788991" fill="white"/>
<ellipse cx="84.976" cy="108.092" rx="0.752" ry="0.788991" fill="white"/>
<ellipse cx="90.992" cy="108.092" rx="0.752" ry="0.788991" fill="white"/>
<ellipse cx="97.008" cy="108.092" rx="0.752" ry="0.788991" fill="white"/>
<ellipse cx="103.024" cy="108.092" rx="0.752" ry="0.788991" fill="white"/>
<ellipse cx="109.04" cy="108.092" rx="0.752" ry="0.788991" fill="white"/>
<ellipse cx="115.056" cy="108.092" rx="0.752" ry="0.788991" fill="white"/>
<ellipse cx="121.072" cy="108.092" rx="0.752" ry="0.788991" fill="white"/>
<ellipse cx="127.088" cy="108.092" rx="0.752" ry="0.788991" fill="white"/>
<ellipse cx="133.104" cy="108.092" rx="0.752" ry="0.788991" fill="white"/>
<ellipse cx="139.12" cy="108.092" rx="0.752" ry="0.788991" fill="white"/>
<ellipse cx="145.136" cy="108.092" rx="0.752" ry="0.788991" fill="white"/>
<ellipse cx="151.152" cy="108.092" rx="0.752" ry="0.788991" fill="white"/>
<ellipse cx="157.168" cy="108.092" rx="0.752" ry="0.788991" fill="white"/>
<ellipse cx="163.184" cy="108.092" rx="0.752" ry="0.788991" fill="white"/>
<ellipse cx="169.2" cy="108.092" rx="0.752" ry="0.788991" fill="white"/>
<ellipse cx="175.216" cy="108.092" rx="0.752" ry="0.788991" fill="white"/>
<ellipse cx="181.232" cy="108.092" rx="0.752" ry="0.788991" fill="white"/>
<ellipse cx="187.248" cy="108.092" rx="0.752" ry="0.788991" fill="white"/>
<ellipse cx="0.752" cy="101.78" rx="0.752" ry="0.788991" fill="white"/>
<ellipse cx="6.76799" cy="101.78" rx="0.752" ry="0.788991" fill="white"/>
<ellipse cx="12.784" cy="101.78" rx="0.752" ry="0.788991" fill="white"/>
<ellipse cx="18.8" cy="101.78" rx="0.752" ry="0.788991" fill="white"/>
<ellipse cx="24.816" cy="101.78" rx="0.752" ry="0.788991" fill="white"/>
<ellipse cx="30.832" cy="101.78" rx="0.752" ry="0.788991" fill="white"/>
<ellipse cx="36.8479" cy="101.78" rx="0.752" ry="0.788991" fill="white"/>
<ellipse cx="42.8641" cy="101.78" rx="0.752" ry="0.788991" fill="white"/>
<ellipse cx="48.8801" cy="101.78" rx="0.752" ry="0.788991" fill="white"/>
<ellipse cx="54.896" cy="101.78" rx="0.752" ry="0.788991" fill="white"/>
<ellipse cx="60.912" cy="101.78" rx="0.752" ry="0.788991" fill="white"/>
<ellipse cx="66.928" cy="101.78" rx="0.752" ry="0.788991" fill="white"/>
<ellipse cx="72.944" cy="101.78" rx="0.752" ry="0.788991" fill="white"/>
<ellipse cx="78.96" cy="101.78" rx="0.752" ry="0.788991" fill="white"/>
<ellipse cx="84.976" cy="101.78" rx="0.752" ry="0.788991" fill="white"/>
<ellipse cx="90.992" cy="101.78" rx="0.752" ry="0.788991" fill="white"/>
<ellipse cx="97.008" cy="101.78" rx="0.752" ry="0.788991" fill="white"/>
<ellipse cx="103.024" cy="101.78" rx="0.752" ry="0.788991" fill="white"/>
<ellipse cx="109.04" cy="101.78" rx="0.752" ry="0.788991" fill="white"/>
<ellipse cx="115.056" cy="101.78" rx="0.752" ry="0.788991" fill="white"/>
<ellipse cx="121.072" cy="101.78" rx="0.752" ry="0.788991" fill="white"/>
<ellipse cx="127.088" cy="101.78" rx="0.752" ry="0.788991" fill="white"/>
<ellipse cx="133.104" cy="101.78" rx="0.752" ry="0.788991" fill="white"/>
<ellipse cx="139.12" cy="101.78" rx="0.752" ry="0.788991" fill="white"/>
<ellipse cx="145.136" cy="101.78" rx="0.752" ry="0.788991" fill="white"/>
<ellipse cx="151.152" cy="101.78" rx="0.752" ry="0.788991" fill="white"/>
<ellipse cx="157.168" cy="101.78" rx="0.752" ry="0.788991" fill="white"/>
<ellipse cx="163.184" cy="101.78" rx="0.752" ry="0.788991" fill="white"/>
<ellipse cx="169.2" cy="101.78" rx="0.752" ry="0.788991" fill="white"/>
<ellipse cx="175.216" cy="101.78" rx="0.752" ry="0.788991" fill="white"/>
<ellipse cx="181.232" cy="101.78" rx="0.752" ry="0.788991" fill="white"/>
<ellipse cx="187.248" cy="101.78" rx="0.752" ry="0.788991" fill="white"/>
<ellipse cx="0.752" cy="95.4679" rx="0.752" ry="0.788991" fill="white"/>
<ellipse cx="6.76799" cy="95.4679" rx="0.752" ry="0.788991" fill="white"/>
<ellipse cx="12.784" cy="95.4679" rx="0.752" ry="0.788991" fill="white"/>
<ellipse cx="18.8" cy="95.4679" rx="0.752" ry="0.788991" fill="white"/>
<ellipse cx="24.816" cy="95.4679" rx="0.752" ry="0.788991" fill="white"/>
<ellipse cx="30.832" cy="95.4679" rx="0.752" ry="0.788991" fill="white"/>
<ellipse cx="36.8479" cy="95.4679" rx="0.752" ry="0.788991" fill="white"/>
<ellipse cx="42.8641" cy="95.4679" rx="0.752" ry="0.788991" fill="white"/>
<ellipse cx="48.8801" cy="95.4679" rx="0.752" ry="0.788991" fill="white"/>
<ellipse cx="54.896" cy="95.4679" rx="0.752" ry="0.788991" fill="white"/>
<ellipse cx="60.912" cy="95.4679" rx="0.752" ry="0.788991" fill="white"/>
<ellipse cx="66.928" cy="95.4679" rx="0.752" ry="0.788991" fill="white"/>
<ellipse cx="72.944" cy="95.4679" rx="0.752" ry="0.788991" fill="white"/>
<ellipse cx="78.96" cy="95.4679" rx="0.752" ry="0.788991" fill="white"/>
<ellipse cx="84.976" cy="95.4679" rx="0.752" ry="0.788991" fill="white"/>
<ellipse cx="90.992" cy="95.4679" rx="0.752" ry="0.788991" fill="white"/>
<ellipse cx="97.008" cy="95.4679" rx="0.752" ry="0.788991" fill="white"/>
<ellipse cx="103.024" cy="95.4679" rx="0.752" ry="0.788991" fill="white"/>
<ellipse cx="109.04" cy="95.4679" rx="0.752" ry="0.788991" fill="white"/>
<ellipse cx="115.056" cy="95.4679" rx="0.752" ry="0.788991" fill="white"/>
<ellipse cx="121.072" cy="95.4679" rx="0.752" ry="0.788991" fill="white"/>
<ellipse cx="127.088" cy="95.4679" rx="0.752" ry="0.788991" fill="white"/>
<ellipse cx="133.104" cy="95.4679" rx="0.752" ry="0.788991" fill="white"/>
<ellipse cx="139.12" cy="95.4679" rx="0.752" ry="0.788991" fill="white"/>
<ellipse cx="145.136" cy="95.4679" rx="0.752" ry="0.788991" fill="white"/>
<ellipse cx="151.152" cy="95.4679" rx="0.752" ry="0.788991" fill="white"/>
<ellipse cx="157.168" cy="95.4679" rx="0.752" ry="0.788991" fill="white"/>
<ellipse cx="163.184" cy="95.4679" rx="0.752" ry="0.788991" fill="white"/>
<ellipse cx="169.2" cy="95.4679" rx="0.752" ry="0.788991" fill="white"/>
<ellipse cx="175.216" cy="95.4679" rx="0.752" ry="0.788991" fill="white"/>
<ellipse cx="181.232" cy="95.4679" rx="0.752" ry="0.788991" fill="white"/>
<ellipse cx="187.248" cy="95.4679" rx="0.752" ry="0.788991" fill="white"/>
<ellipse cx="0.752" cy="89.156" rx="0.752" ry="0.788991" fill="white"/>
<ellipse cx="6.76799" cy="89.156" rx="0.752" ry="0.788991" fill="white"/>
<ellipse cx="12.784" cy="89.156" rx="0.752" ry="0.788991" fill="white"/>
<ellipse cx="18.8" cy="89.156" rx="0.752" ry="0.788991" fill="white"/>
<ellipse cx="24.816" cy="89.156" rx="0.752" ry="0.788991" fill="white"/>
<ellipse cx="30.832" cy="89.156" rx="0.752" ry="0.788991" fill="white"/>
<ellipse cx="36.8479" cy="89.156" rx="0.752" ry="0.788991" fill="white"/>
<ellipse cx="42.8641" cy="89.156" rx="0.752" ry="0.788991" fill="white"/>
<ellipse cx="48.8801" cy="89.156" rx="0.752" ry="0.788991" fill="white"/>
<ellipse cx="54.896" cy="89.156" rx="0.752" ry="0.788991" fill="white"/>
<ellipse cx="60.912" cy="89.156" rx="0.752" ry="0.788991" fill="white"/>
<ellipse cx="66.928" cy="89.156" rx="0.752" ry="0.788991" fill="white"/>
<ellipse cx="72.944" cy="89.156" rx="0.752" ry="0.788991" fill="white"/>
<ellipse cx="78.96" cy="89.156" rx="0.752" ry="0.788991" fill="white"/>
<ellipse cx="84.976" cy="89.156" rx="0.752" ry="0.788991" fill="white"/>
<ellipse cx="90.992" cy="89.156" rx="0.752" ry="0.788991" fill="white"/>
<ellipse cx="97.008" cy="89.156" rx="0.752" ry="0.788991" fill="white"/>
<ellipse cx="103.024" cy="89.156" rx="0.752" ry="0.788991" fill="white"/>
<ellipse cx="109.04" cy="89.156" rx="0.752" ry="0.788991" fill="white"/>
<ellipse cx="115.056" cy="89.156" rx="0.752" ry="0.788991" fill="white"/>
<ellipse cx="121.072" cy="89.156" rx="0.752" ry="0.788991" fill="white"/>
<ellipse cx="127.088" cy="89.156" rx="0.752" ry="0.788991" fill="white"/>
<ellipse cx="133.104" cy="89.156" rx="0.752" ry="0.788991" fill="white"/>
<ellipse cx="139.12" cy="89.156" rx="0.752" ry="0.788991" fill="white"/>
<ellipse cx="145.136" cy="89.156" rx="0.752" ry="0.788991" fill="white"/>
<ellipse cx="151.152" cy="89.156" rx="0.752" ry="0.788991" fill="white"/>
<ellipse cx="157.168" cy="89.156" rx="0.752" ry="0.788991" fill="white"/>
<ellipse cx="163.184" cy="89.156" rx="0.752" ry="0.788991" fill="white"/>
<ellipse cx="169.2" cy="89.156" rx="0.752" ry="0.788991" fill="white"/>
<ellipse cx="175.216" cy="89.156" rx="0.752" ry="0.788991" fill="white"/>
<ellipse cx="181.232" cy="89.156" rx="0.752" ry="0.788991" fill="white"/>
<ellipse cx="187.248" cy="89.156" rx="0.752" ry="0.788991" fill="white"/>
<ellipse cx="0.752" cy="95.4679" rx="0.752" ry="0.788991" fill="white"/>
<ellipse cx="6.76799" cy="95.4679" rx="0.752" ry="0.788991" fill="white"/>
<ellipse cx="12.784" cy="95.4679" rx="0.752" ry="0.788991" fill="white"/>
<ellipse cx="18.8" cy="95.4679" rx="0.752" ry="0.788991" fill="white"/>
<ellipse cx="24.816" cy="95.4679" rx="0.752" ry="0.788991" fill="white"/>
<ellipse cx="30.832" cy="95.4679" rx="0.752" ry="0.788991" fill="white"/>
<ellipse cx="36.8479" cy="95.4679" rx="0.752" ry="0.788991" fill="white"/>
<ellipse cx="42.8641" cy="95.4679" rx="0.752" ry="0.788991" fill="white"/>
<ellipse cx="48.8801" cy="95.4679" rx="0.752" ry="0.788991" fill="white"/>
<ellipse cx="54.896" cy="95.4679" rx="0.752" ry="0.788991" fill="white"/>
<ellipse cx="60.912" cy="95.4679" rx="0.752" ry="0.788991" fill="white"/>
<ellipse cx="66.928" cy="95.4679" rx="0.752" ry="0.788991" fill="white"/>
<ellipse cx="72.944" cy="95.4679" rx="0.752" ry="0.788991" fill="white"/>
<ellipse cx="78.96" cy="95.4679" rx="0.752" ry="0.788991" fill="white"/>
<ellipse cx="84.976" cy="95.4679" rx="0.752" ry="0.788991" fill="white"/>
<ellipse cx="90.992" cy="95.4679" rx="0.752" ry="0.788991" fill="white"/>
<ellipse cx="97.008" cy="95.4679" rx="0.752" ry="0.788991" fill="white"/>
<ellipse cx="103.024" cy="95.4679" rx="0.752" ry="0.788991" fill="white"/>
<ellipse cx="109.04" cy="95.4679" rx="0.752" ry="0.788991" fill="white"/>
<ellipse cx="115.056" cy="95.4679" rx="0.752" ry="0.788991" fill="white"/>
<ellipse cx="121.072" cy="95.4679" rx="0.752" ry="0.788991" fill="white"/>
<ellipse cx="127.088" cy="95.4679" rx="0.752" ry="0.788991" fill="white"/>
<ellipse cx="133.104" cy="95.4679" rx="0.752" ry="0.788991" fill="white"/>
<ellipse cx="139.12" cy="95.4679" rx="0.752" ry="0.788991" fill="white"/>
<ellipse cx="145.136" cy="95.4679" rx="0.752" ry="0.788991" fill="white"/>
<ellipse cx="151.152" cy="95.4679" rx="0.752" ry="0.788991" fill="white"/>
<ellipse cx="157.168" cy="95.4679" rx="0.752" ry="0.788991" fill="white"/>
<ellipse cx="163.184" cy="95.4679" rx="0.752" ry="0.788991" fill="white"/>
<ellipse cx="169.2" cy="95.4679" rx="0.752" ry="0.788991" fill="white"/>
<ellipse cx="175.216" cy="95.4679" rx="0.752" ry="0.788991" fill="white"/>
<ellipse cx="181.232" cy="95.4679" rx="0.752" ry="0.788991" fill="white"/>
<ellipse cx="187.248" cy="95.4679" rx="0.752" ry="0.788991" fill="white"/>
<ellipse cx="0.752" cy="89.156" rx="0.752" ry="0.788991" fill="white"/>
<ellipse cx="6.76799" cy="89.156" rx="0.752" ry="0.788991" fill="white"/>
<ellipse cx="12.784" cy="89.156" rx="0.752" ry="0.788991" fill="white"/>
<ellipse cx="18.8" cy="89.156" rx="0.752" ry="0.788991" fill="white"/>
<ellipse cx="24.816" cy="89.156" rx="0.752" ry="0.788991" fill="white"/>
<ellipse cx="30.832" cy="89.156" rx="0.752" ry="0.788991" fill="white"/>
<ellipse cx="36.8479" cy="89.156" rx="0.752" ry="0.788991" fill="white"/>
<ellipse cx="42.8641" cy="89.156" rx="0.752" ry="0.788991" fill="white"/>
<ellipse cx="48.8801" cy="89.156" rx="0.752" ry="0.788991" fill="white"/>
<ellipse cx="54.896" cy="89.156" rx="0.752" ry="0.788991" fill="white"/>
<ellipse cx="60.912" cy="89.156" rx="0.752" ry="0.788991" fill="white"/>
<ellipse cx="66.928" cy="89.156" rx="0.752" ry="0.788991" fill="white"/>
<ellipse cx="72.944" cy="89.156" rx="0.752" ry="0.788991" fill="white"/>
<ellipse cx="78.96" cy="89.156" rx="0.752" ry="0.788991" fill="white"/>
<ellipse cx="84.976" cy="89.156" rx="0.752" ry="0.788991" fill="white"/>
<ellipse cx="90.992" cy="89.156" rx="0.752" ry="0.788991" fill="white"/>
<ellipse cx="97.008" cy="89.156" rx="0.752" ry="0.788991" fill="white"/>
<ellipse cx="103.024" cy="89.156" rx="0.752" ry="0.788991" fill="white"/>
<ellipse cx="109.04" cy="89.156" rx="0.752" ry="0.788991" fill="white"/>
<ellipse cx="115.056" cy="89.156" rx="0.752" ry="0.788991" fill="white"/>
<ellipse cx="121.072" cy="89.156" rx="0.752" ry="0.788991" fill="white"/>
<ellipse cx="127.088" cy="89.156" rx="0.752" ry="0.788991" fill="white"/>
<ellipse cx="133.104" cy="89.156" rx="0.752" ry="0.788991" fill="white"/>
<ellipse cx="139.12" cy="89.156" rx="0.752" ry="0.788991" fill="white"/>
<ellipse cx="145.136" cy="89.156" rx="0.752" ry="0.788991" fill="white"/>
<ellipse cx="151.152" cy="89.156" rx="0.752" ry="0.788991" fill="white"/>
<ellipse cx="157.168" cy="89.156" rx="0.752" ry="0.788991" fill="white"/>
<ellipse cx="163.184" cy="89.156" rx="0.752" ry="0.788991" fill="white"/>
<ellipse cx="169.2" cy="89.156" rx="0.752" ry="0.788991" fill="white"/>
<ellipse cx="175.216" cy="89.156" rx="0.752" ry="0.788991" fill="white"/>
<ellipse cx="181.232" cy="89.156" rx="0.752" ry="0.788991" fill="white"/>
<ellipse cx="187.248" cy="89.156" rx="0.752" ry="0.788991" fill="white"/>
<ellipse cx="0.752" cy="82.844" rx="0.752" ry="0.788991" fill="white"/>
<ellipse cx="6.76799" cy="82.844" rx="0.752" ry="0.788991" fill="white"/>
<ellipse cx="12.784" cy="82.844" rx="0.752" ry="0.788991" fill="white"/>
<ellipse cx="18.8" cy="82.844" rx="0.752" ry="0.788991" fill="white"/>
<ellipse cx="24.816" cy="82.844" rx="0.752" ry="0.788991" fill="white"/>
<ellipse cx="30.832" cy="82.844" rx="0.752" ry="0.788991" fill="white"/>
<ellipse cx="36.8479" cy="82.844" rx="0.752" ry="0.788991" fill="white"/>
<ellipse cx="42.8641" cy="82.844" rx="0.752" ry="0.788991" fill="white"/>
<ellipse cx="48.8801" cy="82.844" rx="0.752" ry="0.788991" fill="white"/>
<ellipse cx="54.896" cy="82.844" rx="0.752" ry="0.788991" fill="white"/>
<ellipse cx="60.912" cy="82.844" rx="0.752" ry="0.788991" fill="white"/>
<ellipse cx="66.928" cy="82.844" rx="0.752" ry="0.788991" fill="white"/>
<ellipse cx="72.944" cy="82.844" rx="0.752" ry="0.788991" fill="white"/>
<ellipse cx="78.96" cy="82.844" rx="0.752" ry="0.788991" fill="white"/>
<ellipse cx="84.976" cy="82.844" rx="0.752" ry="0.788991" fill="white"/>
<ellipse cx="90.992" cy="82.844" rx="0.752" ry="0.788991" fill="white"/>
<ellipse cx="97.008" cy="82.844" rx="0.752" ry="0.788991" fill="white"/>
<ellipse cx="103.024" cy="82.844" rx="0.752" ry="0.788991" fill="white"/>
<ellipse cx="109.04" cy="82.844" rx="0.752" ry="0.788991" fill="white"/>
<ellipse cx="115.056" cy="82.844" rx="0.752" ry="0.788991" fill="white"/>
<ellipse cx="121.072" cy="82.844" rx="0.752" ry="0.788991" fill="white"/>
<ellipse cx="127.088" cy="82.844" rx="0.752" ry="0.788991" fill="white"/>
<ellipse cx="133.104" cy="82.844" rx="0.752" ry="0.788991" fill="white"/>
<ellipse cx="139.12" cy="82.844" rx="0.752" ry="0.788991" fill="white"/>
<ellipse cx="145.136" cy="82.844" rx="0.752" ry="0.788991" fill="white"/>
<ellipse cx="151.152" cy="82.844" rx="0.752" ry="0.788991" fill="white"/>
<ellipse cx="157.168" cy="82.844" rx="0.752" ry="0.788991" fill="white"/>
<ellipse cx="163.184" cy="82.844" rx="0.752" ry="0.788991" fill="white"/>
<ellipse cx="169.2" cy="82.844" rx="0.752" ry="0.788991" fill="white"/>
<ellipse cx="175.216" cy="82.844" rx="0.752" ry="0.788991" fill="white"/>
<ellipse cx="181.232" cy="82.844" rx="0.752" ry="0.788991" fill="white"/>
<ellipse cx="187.248" cy="82.844" rx="0.752" ry="0.788991" fill="white"/>
<ellipse cx="0.752" cy="76.5321" rx="0.752" ry="0.788991" fill="white"/>
<ellipse cx="6.76799" cy="76.5321" rx="0.752" ry="0.788991" fill="white"/>
<ellipse cx="12.784" cy="76.5321" rx="0.752" ry="0.788991" fill="white"/>
<ellipse cx="18.8" cy="76.5321" rx="0.752" ry="0.788991" fill="white"/>
<ellipse cx="24.816" cy="76.5321" rx="0.752" ry="0.788991" fill="white"/>
<ellipse cx="30.832" cy="76.5321" rx="0.752" ry="0.788991" fill="white"/>
<ellipse cx="36.8479" cy="76.5321" rx="0.752" ry="0.788991" fill="white"/>
<ellipse cx="42.8641" cy="76.5321" rx="0.752" ry="0.788991" fill="white"/>
<ellipse cx="48.8801" cy="76.5321" rx="0.752" ry="0.788991" fill="white"/>
<ellipse cx="54.896" cy="76.5321" rx="0.752" ry="0.788991" fill="white"/>
<ellipse cx="60.912" cy="76.5321" rx="0.752" ry="0.788991" fill="white"/>
<ellipse cx="66.928" cy="76.5321" rx="0.752" ry="0.788991" fill="white"/>
<ellipse cx="72.944" cy="76.5321" rx="0.752" ry="0.788991" fill="white"/>
<ellipse cx="78.96" cy="76.5321" rx="0.752" ry="0.788991" fill="white"/>
<ellipse cx="84.976" cy="76.5321" rx="0.752" ry="0.788991" fill="white"/>
<ellipse cx="90.992" cy="76.5321" rx="0.752" ry="0.788991" fill="white"/>
<ellipse cx="97.008" cy="76.5321" rx="0.752" ry="0.788991" fill="white"/>
<ellipse cx="103.024" cy="76.5321" rx="0.752" ry="0.788991" fill="white"/>
<ellipse cx="109.04" cy="76.5321" rx="0.752" ry="0.788991" fill="white"/>
<ellipse cx="115.056" cy="76.5321" rx="0.752" ry="0.788991" fill="white"/>
<ellipse cx="121.072" cy="76.5321" rx="0.752" ry="0.788991" fill="white"/>
<ellipse cx="127.088" cy="76.5321" rx="0.752" ry="0.788991" fill="white"/>
<ellipse cx="133.104" cy="76.5321" rx="0.752" ry="0.788991" fill="white"/>
<ellipse cx="139.12" cy="76.5321" rx="0.752" ry="0.788991" fill="white"/>
<ellipse cx="145.136" cy="76.5321" rx="0.752" ry="0.788991" fill="white"/>
<ellipse cx="151.152" cy="76.5321" rx="0.752" ry="0.788991" fill="white"/>
<ellipse cx="157.168" cy="76.5321" rx="0.752" ry="0.788991" fill="white"/>
<ellipse cx="163.184" cy="76.5321" rx="0.752" ry="0.788991" fill="white"/>
<ellipse cx="169.2" cy="76.5321" rx="0.752" ry="0.788991" fill="white"/>
<ellipse cx="175.216" cy="76.5321" rx="0.752" ry="0.788991" fill="white"/>
<ellipse cx="181.232" cy="76.5321" rx="0.752" ry="0.788991" fill="white"/>
<ellipse cx="187.248" cy="76.5321" rx="0.752" ry="0.788991" fill="white"/>
<ellipse cx="0.752" cy="70.2202" rx="0.752" ry="0.788991" fill="white"/>
<ellipse cx="6.76799" cy="70.2202" rx="0.752" ry="0.788991" fill="white"/>
<ellipse cx="12.784" cy="70.2202" rx="0.752" ry="0.788991" fill="white"/>
<ellipse cx="18.8" cy="70.2202" rx="0.752" ry="0.788991" fill="white"/>
<ellipse cx="24.816" cy="70.2202" rx="0.752" ry="0.788991" fill="white"/>
<ellipse cx="30.832" cy="70.2202" rx="0.752" ry="0.788991" fill="white"/>
<ellipse cx="36.8479" cy="70.2202" rx="0.752" ry="0.788991" fill="white"/>
<ellipse cx="42.8641" cy="70.2202" rx="0.752" ry="0.788991" fill="white"/>
<ellipse cx="48.8801" cy="70.2202" rx="0.752" ry="0.788991" fill="white"/>
<ellipse cx="54.896" cy="70.2202" rx="0.752" ry="0.788991" fill="white"/>
<ellipse cx="60.912" cy="70.2202" rx="0.752" ry="0.788991" fill="white"/>
<ellipse cx="66.928" cy="70.2202" rx="0.752" ry="0.788991" fill="white"/>
<ellipse cx="72.944" cy="70.2202" rx="0.752" ry="0.788991" fill="white"/>
<ellipse cx="78.96" cy="70.2202" rx="0.752" ry="0.788991" fill="white"/>
<ellipse cx="84.976" cy="70.2202" rx="0.752" ry="0.788991" fill="white"/>
<ellipse cx="90.992" cy="70.2202" rx="0.752" ry="0.788991" fill="white"/>
<ellipse cx="97.008" cy="70.2202" rx="0.752" ry="0.788991" fill="white"/>
<ellipse cx="103.024" cy="70.2202" rx="0.752" ry="0.788991" fill="white"/>
<ellipse cx="109.04" cy="70.2202" rx="0.752" ry="0.788991" fill="white"/>
<ellipse cx="115.056" cy="70.2202" rx="0.752" ry="0.788991" fill="white"/>
<ellipse cx="121.072" cy="70.2202" rx="0.752" ry="0.788991" fill="white"/>
<ellipse cx="127.088" cy="70.2202" rx="0.752" ry="0.788991" fill="white"/>
<ellipse cx="133.104" cy="70.2202" rx="0.752" ry="0.788991" fill="white"/>
<ellipse cx="139.12" cy="70.2202" rx="0.752" ry="0.788991" fill="white"/>
<ellipse cx="145.136" cy="70.2202" rx="0.752" ry="0.788991" fill="white"/>
<ellipse cx="151.152" cy="70.2202" rx="0.752" ry="0.788991" fill="white"/>
<ellipse cx="157.168" cy="70.2202" rx="0.752" ry="0.788991" fill="white"/>
<ellipse cx="163.184" cy="70.2202" rx="0.752" ry="0.788991" fill="white"/>
<ellipse cx="169.2" cy="70.2202" rx="0.752" ry="0.788991" fill="white"/>
<ellipse cx="175.216" cy="70.2202" rx="0.752" ry="0.788991" fill="white"/>
<ellipse cx="181.232" cy="70.2202" rx="0.752" ry="0.788991" fill="white"/>
<ellipse cx="187.248" cy="70.2202" rx="0.752" ry="0.788991" fill="white"/>
<ellipse cx="0.752" cy="63.9083" rx="0.752" ry="0.788991" fill="white"/>
<ellipse cx="6.76799" cy="63.9083" rx="0.752" ry="0.788991" fill="white"/>
<ellipse cx="12.784" cy="63.9083" rx="0.752" ry="0.788991" fill="white"/>
<ellipse cx="18.8" cy="63.9083" rx="0.752" ry="0.788991" fill="white"/>
<ellipse cx="24.816" cy="63.9083" rx="0.752" ry="0.788991" fill="white"/>
<ellipse cx="30.832" cy="63.9083" rx="0.752" ry="0.788991" fill="white"/>
<ellipse cx="36.8479" cy="63.9083" rx="0.752" ry="0.788991" fill="white"/>
<ellipse cx="42.8641" cy="63.9083" rx="0.752" ry="0.788991" fill="white"/>
<ellipse cx="48.8801" cy="63.9083" rx="0.752" ry="0.788991" fill="white"/>
<ellipse cx="54.896" cy="63.9083" rx="0.752" ry="0.788991" fill="white"/>
<ellipse cx="60.912" cy="63.9083" rx="0.752" ry="0.788991" fill="white"/>
<ellipse cx="66.928" cy="63.9083" rx="0.752" ry="0.788991" fill="white"/>
<ellipse cx="72.944" cy="63.9083" rx="0.752" ry="0.788991" fill="white"/>
<ellipse cx="78.96" cy="63.9083" rx="0.752" ry="0.788991" fill="white"/>
<ellipse cx="84.976" cy="63.9083" rx="0.752" ry="0.788991" fill="white"/>
<ellipse cx="90.992" cy="63.9083" rx="0.752" ry="0.788991" fill="white"/>
<ellipse cx="97.008" cy="63.9083" rx="0.752" ry="0.788991" fill="white"/>
<ellipse cx="103.024" cy="63.9083" rx="0.752" ry="0.788991" fill="white"/>
<ellipse cx="109.04" cy="63.9083" rx="0.752" ry="0.788991" fill="white"/>
<ellipse cx="115.056" cy="63.9083" rx="0.752" ry="0.788991" fill="white"/>
<ellipse cx="121.072" cy="63.9083" rx="0.752" ry="0.788991" fill="white"/>
<ellipse cx="127.088" cy="63.9083" rx="0.752" ry="0.788991" fill="white"/>
<ellipse cx="133.104" cy="63.9083" rx="0.752" ry="0.788991" fill="white"/>
<ellipse cx="139.12" cy="63.9083" rx="0.752" ry="0.788991" fill="white"/>
<ellipse cx="145.136" cy="63.9083" rx="0.752" ry="0.788991" fill="white"/>
<ellipse cx="151.152" cy="63.9083" rx="0.752" ry="0.788991" fill="white"/>
<ellipse cx="157.168" cy="63.9083" rx="0.752" ry="0.788991" fill="white"/>
<ellipse cx="163.184" cy="63.9083" rx="0.752" ry="0.788991" fill="white"/>
<ellipse cx="169.2" cy="63.9083" rx="0.752" ry="0.788991" fill="white"/>
<ellipse cx="175.216" cy="63.9083" rx="0.752" ry="0.788991" fill="white"/>
<ellipse cx="181.232" cy="63.9083" rx="0.752" ry="0.788991" fill="white"/>
<ellipse cx="187.248" cy="63.9083" rx="0.752" ry="0.788991" fill="white"/>
<ellipse cx="0.752" cy="57.5963" rx="0.752" ry="0.788991" fill="white"/>
<ellipse cx="6.76799" cy="57.5963" rx="0.752" ry="0.788991" fill="white"/>
<ellipse cx="12.784" cy="57.5963" rx="0.752" ry="0.788991" fill="white"/>
<ellipse cx="18.8" cy="57.5963" rx="0.752" ry="0.788991" fill="white"/>
<ellipse cx="24.816" cy="57.5963" rx="0.752" ry="0.788991" fill="white"/>
<ellipse cx="30.832" cy="57.5963" rx="0.752" ry="0.788991" fill="white"/>
<ellipse cx="36.8479" cy="57.5963" rx="0.752" ry="0.788991" fill="white"/>
<ellipse cx="42.8641" cy="57.5963" rx="0.752" ry="0.788991" fill="white"/>
<ellipse cx="48.8801" cy="57.5963" rx="0.752" ry="0.788991" fill="white"/>
<ellipse cx="54.896" cy="57.5963" rx="0.752" ry="0.788991" fill="white"/>
<ellipse cx="60.912" cy="57.5963" rx="0.752" ry="0.788991" fill="white"/>
<ellipse cx="66.928" cy="57.5963" rx="0.752" ry="0.788991" fill="white"/>
<ellipse cx="72.944" cy="57.5963" rx="0.752" ry="0.788991" fill="white"/>
<ellipse cx="78.96" cy="57.5963" rx="0.752" ry="0.788991" fill="white"/>
<ellipse cx="84.976" cy="57.5963" rx="0.752" ry="0.788991" fill="white"/>
<ellipse cx="90.992" cy="57.5963" rx="0.752" ry="0.788991" fill="white"/>
<ellipse cx="97.008" cy="57.5963" rx="0.752" ry="0.788991" fill="white"/>
<ellipse cx="103.024" cy="57.5963" rx="0.752" ry="0.788991" fill="white"/>
<ellipse cx="109.04" cy="57.5963" rx="0.752" ry="0.788991" fill="white"/>
<ellipse cx="115.056" cy="57.5963" rx="0.752" ry="0.788991" fill="white"/>
<ellipse cx="121.072" cy="57.5963" rx="0.752" ry="0.788991" fill="white"/>
<ellipse cx="127.088" cy="57.5963" rx="0.752" ry="0.788991" fill="white"/>
<ellipse cx="133.104" cy="57.5963" rx="0.752" ry="0.788991" fill="white"/>
<ellipse cx="139.12" cy="57.5963" rx="0.752" ry="0.788991" fill="white"/>
<ellipse cx="145.136" cy="57.5963" rx="0.752" ry="0.788991" fill="white"/>
<ellipse cx="151.152" cy="57.5963" rx="0.752" ry="0.788991" fill="white"/>
<ellipse cx="157.168" cy="57.5963" rx="0.752" ry="0.788991" fill="white"/>
<ellipse cx="163.184" cy="57.5963" rx="0.752" ry="0.788991" fill="white"/>
<ellipse cx="169.2" cy="57.5963" rx="0.752" ry="0.788991" fill="white"/>
<ellipse cx="175.216" cy="57.5963" rx="0.752" ry="0.788991" fill="white"/>
<ellipse cx="181.232" cy="57.5963" rx="0.752" ry="0.788991" fill="white"/>
<ellipse cx="187.248" cy="57.5963" rx="0.752" ry="0.788991" fill="white"/>
<ellipse cx="0.752" cy="51.2844" rx="0.752" ry="0.788991" fill="white"/>
<ellipse cx="6.76799" cy="51.2844" rx="0.752" ry="0.788991" fill="white"/>
<ellipse cx="12.784" cy="51.2844" rx="0.752" ry="0.788991" fill="white"/>
<ellipse cx="18.8" cy="51.2844" rx="0.752" ry="0.788991" fill="white"/>
<ellipse cx="24.816" cy="51.2844" rx="0.752" ry="0.788991" fill="white"/>
<ellipse cx="30.832" cy="51.2844" rx="0.752" ry="0.788991" fill="white"/>
<ellipse cx="36.8479" cy="51.2844" rx="0.752" ry="0.788991" fill="white"/>
<ellipse cx="42.8641" cy="51.2844" rx="0.752" ry="0.788991" fill="white"/>
<ellipse cx="48.8801" cy="51.2844" rx="0.752" ry="0.788991" fill="white"/>
<ellipse cx="54.896" cy="51.2844" rx="0.752" ry="0.788991" fill="white"/>
<ellipse cx="60.912" cy="51.2844" rx="0.752" ry="0.788991" fill="white"/>
<ellipse cx="66.928" cy="51.2844" rx="0.752" ry="0.788991" fill="white"/>
<ellipse cx="72.944" cy="51.2844" rx="0.752" ry="0.788991" fill="white"/>
<ellipse cx="78.96" cy="51.2844" rx="0.752" ry="0.788991" fill="white"/>
<ellipse cx="84.976" cy="51.2844" rx="0.752" ry="0.788991" fill="white"/>
<ellipse cx="90.992" cy="51.2844" rx="0.752" ry="0.788991" fill="white"/>
<ellipse cx="97.008" cy="51.2844" rx="0.752" ry="0.788991" fill="white"/>
<ellipse cx="103.024" cy="51.2844" rx="0.752" ry="0.788991" fill="white"/>
<ellipse cx="109.04" cy="51.2844" rx="0.752" ry="0.788991" fill="white"/>
<ellipse cx="115.056" cy="51.2844" rx="0.752" ry="0.788991" fill="white"/>
<ellipse cx="121.072" cy="51.2844" rx="0.752" ry="0.788991" fill="white"/>
<ellipse cx="127.088" cy="51.2844" rx="0.752" ry="0.788991" fill="white"/>
<ellipse cx="133.104" cy="51.2844" rx="0.752" ry="0.788991" fill="white"/>
<ellipse cx="139.12" cy="51.2844" rx="0.752" ry="0.788991" fill="white"/>
<ellipse cx="145.136" cy="51.2844" rx="0.752" ry="0.788991" fill="white"/>
<ellipse cx="151.152" cy="51.2844" rx="0.752" ry="0.788991" fill="white"/>
<ellipse cx="157.168" cy="51.2844" rx="0.752" ry="0.788991" fill="white"/>
<ellipse cx="163.184" cy="51.2844" rx="0.752" ry="0.788991" fill="white"/>
<ellipse cx="169.2" cy="51.2844" rx="0.752" ry="0.788991" fill="white"/>
<ellipse cx="175.216" cy="51.2844" rx="0.752" ry="0.788991" fill="white"/>
<ellipse cx="181.232" cy="51.2844" rx="0.752" ry="0.788991" fill="white"/>
<ellipse cx="187.248" cy="51.2844" rx="0.752" ry="0.788991" fill="white"/>
<ellipse cx="0.752" cy="44.9725" rx="0.752" ry="0.788991" fill="white"/>
<ellipse cx="6.76799" cy="44.9725" rx="0.752" ry="0.788991" fill="white"/>
<ellipse cx="12.784" cy="44.9725" rx="0.752" ry="0.788991" fill="white"/>
<ellipse cx="18.8" cy="44.9725" rx="0.752" ry="0.788991" fill="white"/>
<ellipse cx="24.816" cy="44.9725" rx="0.752" ry="0.788991" fill="white"/>
<ellipse cx="30.832" cy="44.9725" rx="0.752" ry="0.788991" fill="white"/>
<ellipse cx="36.8479" cy="44.9725" rx="0.752" ry="0.788991" fill="white"/>
<ellipse cx="42.8641" cy="44.9725" rx="0.752" ry="0.788991" fill="white"/>
<ellipse cx="48.8801" cy="44.9725" rx="0.752" ry="0.788991" fill="white"/>
<ellipse cx="54.896" cy="44.9725" rx="0.752" ry="0.788991" fill="white"/>
<ellipse cx="60.912" cy="44.9725" rx="0.752" ry="0.788991" fill="white"/>
<ellipse cx="66.928" cy="44.9725" rx="0.752" ry="0.788991" fill="white"/>
<ellipse cx="72.944" cy="44.9725" rx="0.752" ry="0.788991" fill="white"/>
<ellipse cx="78.96" cy="44.9725" rx="0.752" ry="0.788991" fill="white"/>
<ellipse cx="84.976" cy="44.9725" rx="0.752" ry="0.788991" fill="white"/>
<ellipse cx="90.992" cy="44.9725" rx="0.752" ry="0.788991" fill="white"/>
<ellipse cx="97.008" cy="44.9725" rx="0.752" ry="0.788991" fill="white"/>
<ellipse cx="103.024" cy="44.9725" rx="0.752" ry="0.788991" fill="white"/>
<ellipse cx="109.04" cy="44.9725" rx="0.752" ry="0.788991" fill="white"/>
<ellipse cx="115.056" cy="44.9725" rx="0.752" ry="0.788991" fill="white"/>
<ellipse cx="121.072" cy="44.9725" rx="0.752" ry="0.788991" fill="white"/>
<ellipse cx="127.088" cy="44.9725" rx="0.752" ry="0.788991" fill="white"/>
<ellipse cx="133.104" cy="44.9725" rx="0.752" ry="0.788991" fill="white"/>
<ellipse cx="139.12" cy="44.9725" rx="0.752" ry="0.788991" fill="white"/>
<ellipse cx="145.136" cy="44.9725" rx="0.752" ry="0.788991" fill="white"/>
<ellipse cx="151.152" cy="44.9725" rx="0.752" ry="0.788991" fill="white"/>
<ellipse cx="157.168" cy="44.9725" rx="0.752" ry="0.788991" fill="white"/>
<ellipse cx="163.184" cy="44.9725" rx="0.752" ry="0.788991" fill="white"/>
<ellipse cx="169.2" cy="44.9725" rx="0.752" ry="0.788991" fill="white"/>
<ellipse cx="175.216" cy="44.9725" rx="0.752" ry="0.788991" fill="white"/>
<ellipse cx="181.232" cy="44.9725" rx="0.752" ry="0.788991" fill="white"/>
<ellipse cx="187.248" cy="44.9725" rx="0.752" ry="0.788991" fill="white"/>
<ellipse cx="0.752" cy="38.6605" rx="0.752" ry="0.788991" fill="white"/>
<ellipse cx="6.76799" cy="38.6605" rx="0.752" ry="0.788991" fill="white"/>
<ellipse cx="12.784" cy="38.6605" rx="0.752" ry="0.788991" fill="white"/>
<ellipse cx="18.8" cy="38.6605" rx="0.752" ry="0.788991" fill="white"/>
<ellipse cx="24.816" cy="38.6605" rx="0.752" ry="0.788991" fill="white"/>
<ellipse cx="30.832" cy="38.6605" rx="0.752" ry="0.788991" fill="white"/>
<ellipse cx="36.8479" cy="38.6605" rx="0.752" ry="0.788991" fill="white"/>
<ellipse cx="42.8641" cy="38.6605" rx="0.752" ry="0.788991" fill="white"/>
<ellipse cx="48.8801" cy="38.6605" rx="0.752" ry="0.788991" fill="white"/>
<ellipse cx="54.896" cy="38.6605" rx="0.752" ry="0.788991" fill="white"/>
<ellipse cx="60.912" cy="38.6605" rx="0.752" ry="0.788991" fill="white"/>
<ellipse cx="66.928" cy="38.6605" rx="0.752" ry="0.788991" fill="white"/>
<ellipse cx="72.944" cy="38.6605" rx="0.752" ry="0.788991" fill="white"/>
<ellipse cx="78.96" cy="38.6605" rx="0.752" ry="0.788991" fill="white"/>
<ellipse cx="84.976" cy="38.6605" rx="0.752" ry="0.788991" fill="white"/>
<ellipse cx="90.992" cy="38.6605" rx="0.752" ry="0.788991" fill="white"/>
<ellipse cx="97.008" cy="38.6605" rx="0.752" ry="0.788991" fill="white"/>
<ellipse cx="103.024" cy="38.6605" rx="0.752" ry="0.788991" fill="white"/>
<ellipse cx="109.04" cy="38.6605" rx="0.752" ry="0.788991" fill="white"/>
<ellipse cx="115.056" cy="38.6605" rx="0.752" ry="0.788991" fill="white"/>
<ellipse cx="121.072" cy="38.6605" rx="0.752" ry="0.788991" fill="white"/>
<ellipse cx="127.088" cy="38.6605" rx="0.752" ry="0.788991" fill="white"/>
<ellipse cx="133.104" cy="38.6605" rx="0.752" ry="0.788991" fill="white"/>
<ellipse cx="139.12" cy="38.6605" rx="0.752" ry="0.788991" fill="white"/>
<ellipse cx="145.136" cy="38.6605" rx="0.752" ry="0.788991" fill="white"/>
<ellipse cx="151.152" cy="38.6605" rx="0.752" ry="0.788991" fill="white"/>
<ellipse cx="157.168" cy="38.6605" rx="0.752" ry="0.788991" fill="white"/>
<ellipse cx="163.184" cy="38.6605" rx="0.752" ry="0.788991" fill="white"/>
<ellipse cx="169.2" cy="38.6605" rx="0.752" ry="0.788991" fill="white"/>
<ellipse cx="175.216" cy="38.6605" rx="0.752" ry="0.788991" fill="white"/>
<ellipse cx="181.232" cy="38.6605" rx="0.752" ry="0.788991" fill="white"/>
<ellipse cx="187.248" cy="38.6605" rx="0.752" ry="0.788991" fill="white"/>
<ellipse cx="0.752" cy="32.3486" rx="0.752" ry="0.788991" fill="white"/>
<ellipse cx="6.76799" cy="32.3486" rx="0.752" ry="0.788991" fill="white"/>
<ellipse cx="12.784" cy="32.3486" rx="0.752" ry="0.788991" fill="white"/>
<ellipse cx="18.8" cy="32.3486" rx="0.752" ry="0.788991" fill="white"/>
<ellipse cx="24.816" cy="32.3486" rx="0.752" ry="0.788991" fill="white"/>
<ellipse cx="30.832" cy="32.3486" rx="0.752" ry="0.788991" fill="white"/>
<ellipse cx="36.8479" cy="32.3486" rx="0.752" ry="0.788991" fill="white"/>
<ellipse cx="42.8641" cy="32.3486" rx="0.752" ry="0.788991" fill="white"/>
<ellipse cx="48.8801" cy="32.3486" rx="0.752" ry="0.788991" fill="white"/>
<ellipse cx="54.896" cy="32.3486" rx="0.752" ry="0.788991" fill="white"/>
<ellipse cx="60.912" cy="32.3486" rx="0.752" ry="0.788991" fill="white"/>
<ellipse cx="66.928" cy="32.3486" rx="0.752" ry="0.788991" fill="white"/>
<ellipse cx="72.944" cy="32.3486" rx="0.752" ry="0.788991" fill="white"/>
<ellipse cx="78.96" cy="32.3486" rx="0.752" ry="0.788991" fill="white"/>
<ellipse cx="84.976" cy="32.3486" rx="0.752" ry="0.788991" fill="white"/>
<ellipse cx="90.992" cy="32.3486" rx="0.752" ry="0.788991" fill="white"/>
<ellipse cx="97.008" cy="32.3486" rx="0.752" ry="0.788991" fill="white"/>
<ellipse cx="103.024" cy="32.3486" rx="0.752" ry="0.788991" fill="white"/>
<ellipse cx="109.04" cy="32.3486" rx="0.752" ry="0.788991" fill="white"/>
<ellipse cx="115.056" cy="32.3486" rx="0.752" ry="0.788991" fill="white"/>
<ellipse cx="121.072" cy="32.3486" rx="0.752" ry="0.788991" fill="white"/>
<ellipse cx="127.088" cy="32.3486" rx="0.752" ry="0.788991" fill="white"/>
<ellipse cx="133.104" cy="32.3486" rx="0.752" ry="0.788991" fill="white"/>
<ellipse cx="139.12" cy="32.3486" rx="0.752" ry="0.788991" fill="white"/>
<ellipse cx="145.136" cy="32.3486" rx="0.752" ry="0.788991" fill="white"/>
<ellipse cx="151.152" cy="32.3486" rx="0.752" ry="0.788991" fill="white"/>
<ellipse cx="157.168" cy="32.3486" rx="0.752" ry="0.788991" fill="white"/>
<ellipse cx="163.184" cy="32.3486" rx="0.752" ry="0.788991" fill="white"/>
<ellipse cx="169.2" cy="32.3486" rx="0.752" ry="0.788991" fill="white"/>
<ellipse cx="175.216" cy="32.3486" rx="0.752" ry="0.788991" fill="white"/>
<ellipse cx="181.232" cy="32.3486" rx="0.752" ry="0.788991" fill="white"/>
<ellipse cx="187.248" cy="32.3486" rx="0.752" ry="0.788991" fill="white"/>
<ellipse cx="0.752" cy="26.0367" rx="0.752" ry="0.788991" fill="white"/>
<ellipse cx="6.76799" cy="26.0367" rx="0.752" ry="0.788991" fill="white"/>
<ellipse cx="12.784" cy="26.0367" rx="0.752" ry="0.788991" fill="white"/>
<ellipse cx="18.8" cy="26.0367" rx="0.752" ry="0.788991" fill="white"/>
<ellipse cx="24.816" cy="26.0367" rx="0.752" ry="0.788991" fill="white"/>
<ellipse cx="30.832" cy="26.0367" rx="0.752" ry="0.788991" fill="white"/>
<ellipse cx="36.8479" cy="26.0367" rx="0.752" ry="0.788991" fill="white"/>
<ellipse cx="42.8641" cy="26.0367" rx="0.752" ry="0.788991" fill="white"/>
<ellipse cx="48.8801" cy="26.0367" rx="0.752" ry="0.788991" fill="white"/>
<ellipse cx="54.896" cy="26.0367" rx="0.752" ry="0.788991" fill="white"/>
<ellipse cx="60.912" cy="26.0367" rx="0.752" ry="0.788991" fill="white"/>
<ellipse cx="66.928" cy="26.0367" rx="0.752" ry="0.788991" fill="white"/>
<ellipse cx="72.944" cy="26.0367" rx="0.752" ry="0.788991" fill="white"/>
<ellipse cx="78.96" cy="26.0367" rx="0.752" ry="0.788991" fill="white"/>
<ellipse cx="84.976" cy="26.0367" rx="0.752" ry="0.788991" fill="white"/>
<ellipse cx="90.992" cy="26.0367" rx="0.752" ry="0.788991" fill="white"/>
<ellipse cx="97.008" cy="26.0367" rx="0.752" ry="0.788991" fill="white"/>
<ellipse cx="103.024" cy="26.0367" rx="0.752" ry="0.788991" fill="white"/>
<ellipse cx="109.04" cy="26.0367" rx="0.752" ry="0.788991" fill="white"/>
<ellipse cx="115.056" cy="26.0367" rx="0.752" ry="0.788991" fill="white"/>
<ellipse cx="121.072" cy="26.0367" rx="0.752" ry="0.788991" fill="white"/>
<ellipse cx="127.088" cy="26.0367" rx="0.752" ry="0.788991" fill="white"/>
<ellipse cx="133.104" cy="26.0367" rx="0.752" ry="0.788991" fill="white"/>
<ellipse cx="139.12" cy="26.0367" rx="0.752" ry="0.788991" fill="white"/>
<ellipse cx="145.136" cy="26.0367" rx="0.752" ry="0.788991" fill="white"/>
<ellipse cx="151.152" cy="26.0367" rx="0.752" ry="0.788991" fill="white"/>
<ellipse cx="157.168" cy="26.0367" rx="0.752" ry="0.788991" fill="white"/>
<ellipse cx="163.184" cy="26.0367" rx="0.752" ry="0.788991" fill="white"/>
<ellipse cx="169.2" cy="26.0367" rx="0.752" ry="0.788991" fill="white"/>
<ellipse cx="175.216" cy="26.0367" rx="0.752" ry="0.788991" fill="white"/>
<ellipse cx="181.232" cy="26.0367" rx="0.752" ry="0.788991" fill="white"/>
<ellipse cx="187.248" cy="26.0367" rx="0.752" ry="0.788991" fill="white"/>
<ellipse cx="0.752" cy="19.7248" rx="0.752" ry="0.788991" fill="white"/>
<ellipse cx="6.76799" cy="19.7248" rx="0.752" ry="0.788991" fill="white"/>
<ellipse cx="12.784" cy="19.7248" rx="0.752" ry="0.788991" fill="white"/>
<ellipse cx="18.8" cy="19.7248" rx="0.752" ry="0.788991" fill="white"/>
<ellipse cx="24.816" cy="19.7248" rx="0.752" ry="0.788991" fill="white"/>
<ellipse cx="30.832" cy="19.7248" rx="0.752" ry="0.788991" fill="white"/>
<ellipse cx="36.8479" cy="19.7248" rx="0.752" ry="0.788991" fill="white"/>
<ellipse cx="42.8641" cy="19.7248" rx="0.752" ry="0.788991" fill="white"/>
<ellipse cx="48.8801" cy="19.7248" rx="0.752" ry="0.788991" fill="white"/>
<ellipse cx="54.896" cy="19.7248" rx="0.752" ry="0.788991" fill="white"/>
<ellipse cx="60.912" cy="19.7248" rx="0.752" ry="0.788991" fill="white"/>
<ellipse cx="66.928" cy="19.7248" rx="0.752" ry="0.788991" fill="white"/>
<ellipse cx="72.944" cy="19.7248" rx="0.752" ry="0.788991" fill="white"/>
<ellipse cx="78.96" cy="19.7248" rx="0.752" ry="0.788991" fill="white"/>
<ellipse cx="84.976" cy="19.7248" rx="0.752" ry="0.788991" fill="white"/>
<ellipse cx="90.992" cy="19.7248" rx="0.752" ry="0.788991" fill="white"/>
<ellipse cx="97.008" cy="19.7248" rx="0.752" ry="0.788991" fill="white"/>
<ellipse cx="103.024" cy="19.7248" rx="0.752" ry="0.788991" fill="white"/>
<ellipse cx="109.04" cy="19.7248" rx="0.752" ry="0.788991" fill="white"/>
<ellipse cx="115.056" cy="19.7248" rx="0.752" ry="0.788991" fill="white"/>
<ellipse cx="121.072" cy="19.7248" rx="0.752" ry="0.788991" fill="white"/>
<ellipse cx="127.088" cy="19.7248" rx="0.752" ry="0.788991" fill="white"/>
<ellipse cx="133.104" cy="19.7248" rx="0.752" ry="0.788991" fill="white"/>
<ellipse cx="139.12" cy="19.7248" rx="0.752" ry="0.788991" fill="white"/>
<ellipse cx="145.136" cy="19.7248" rx="0.752" ry="0.788991" fill="white"/>
<ellipse cx="151.152" cy="19.7248" rx="0.752" ry="0.788991" fill="white"/>
<ellipse cx="157.168" cy="19.7248" rx="0.752" ry="0.788991" fill="white"/>
<ellipse cx="163.184" cy="19.7248" rx="0.752" ry="0.788991" fill="white"/>
<ellipse cx="169.2" cy="19.7248" rx="0.752" ry="0.788991" fill="white"/>
<ellipse cx="175.216" cy="19.7248" rx="0.752" ry="0.788991" fill="white"/>
<ellipse cx="181.232" cy="19.7248" rx="0.752" ry="0.788991" fill="white"/>
<ellipse cx="187.248" cy="19.7248" rx="0.752" ry="0.788991" fill="white"/>
<ellipse cx="0.752" cy="13.4128" rx="0.752" ry="0.788991" fill="white"/>
<ellipse cx="6.76799" cy="13.4128" rx="0.752" ry="0.788991" fill="white"/>
<ellipse cx="12.784" cy="13.4128" rx="0.752" ry="0.788991" fill="white"/>
<ellipse cx="18.8" cy="13.4128" rx="0.752" ry="0.788991" fill="white"/>
<ellipse cx="24.816" cy="13.4128" rx="0.752" ry="0.788991" fill="white"/>
<ellipse cx="30.832" cy="13.4128" rx="0.752" ry="0.788991" fill="white"/>
<ellipse cx="36.8479" cy="13.4128" rx="0.752" ry="0.788991" fill="white"/>
<ellipse cx="42.8641" cy="13.4128" rx="0.752" ry="0.788991" fill="white"/>
<ellipse cx="48.8801" cy="13.4128" rx="0.752" ry="0.788991" fill="white"/>
<ellipse cx="54.896" cy="13.4128" rx="0.752" ry="0.788991" fill="white"/>
<ellipse cx="60.912" cy="13.4128" rx="0.752" ry="0.788991" fill="white"/>
<ellipse cx="66.928" cy="13.4128" rx="0.752" ry="0.788991" fill="white"/>
<ellipse cx="72.944" cy="13.4128" rx="0.752" ry="0.788991" fill="white"/>
<ellipse cx="78.96" cy="13.4128" rx="0.752" ry="0.788991" fill="white"/>
<ellipse cx="84.976" cy="13.4128" rx="0.752" ry="0.788991" fill="white"/>
<ellipse cx="90.992" cy="13.4128" rx="0.752" ry="0.788991" fill="white"/>
<ellipse cx="97.008" cy="13.4128" rx="0.752" ry="0.788991" fill="white"/>
<ellipse cx="103.024" cy="13.4128" rx="0.752" ry="0.788991" fill="white"/>
<ellipse cx="109.04" cy="13.4128" rx="0.752" ry="0.788991" fill="white"/>
<ellipse cx="115.056" cy="13.4128" rx="0.752" ry="0.788991" fill="white"/>
<ellipse cx="121.072" cy="13.4128" rx="0.752" ry="0.788991" fill="white"/>
<ellipse cx="127.088" cy="13.4128" rx="0.752" ry="0.788991" fill="white"/>
<ellipse cx="133.104" cy="13.4128" rx="0.752" ry="0.788991" fill="white"/>
<ellipse cx="139.12" cy="13.4128" rx="0.752" ry="0.788991" fill="white"/>
<ellipse cx="145.136" cy="13.4128" rx="0.752" ry="0.788991" fill="white"/>
<ellipse cx="151.152" cy="13.4128" rx="0.752" ry="0.788991" fill="white"/>
<ellipse cx="157.168" cy="13.4128" rx="0.752" ry="0.788991" fill="white"/>
<ellipse cx="163.184" cy="13.4128" rx="0.752" ry="0.788991" fill="white"/>
<ellipse cx="169.2" cy="13.4128" rx="0.752" ry="0.788991" fill="white"/>
<ellipse cx="175.216" cy="13.4128" rx="0.752" ry="0.788991" fill="white"/>
<ellipse cx="181.232" cy="13.4128" rx="0.752" ry="0.788991" fill="white"/>
<ellipse cx="187.248" cy="13.4128" rx="0.752" ry="0.788991" fill="white"/>
<ellipse cx="0.752" cy="7.10091" rx="0.752" ry="0.788991" fill="white"/>
<ellipse cx="6.76799" cy="7.10091" rx="0.752" ry="0.788991" fill="white"/>
<ellipse cx="12.784" cy="7.10091" rx="0.752" ry="0.788991" fill="white"/>
<ellipse cx="18.8" cy="7.10091" rx="0.752" ry="0.788991" fill="white"/>
<ellipse cx="24.816" cy="7.10091" rx="0.752" ry="0.788991" fill="white"/>
<ellipse cx="30.832" cy="7.10091" rx="0.752" ry="0.788991" fill="white"/>
<ellipse cx="36.8479" cy="7.10091" rx="0.752" ry="0.788991" fill="white"/>
<ellipse cx="42.8641" cy="7.10091" rx="0.752" ry="0.788991" fill="white"/>
<ellipse cx="48.8801" cy="7.10091" rx="0.752" ry="0.788991" fill="white"/>
<ellipse cx="54.896" cy="7.10091" rx="0.752" ry="0.788991" fill="white"/>
<ellipse cx="60.912" cy="7.10091" rx="0.752" ry="0.788991" fill="white"/>
<ellipse cx="66.928" cy="7.10091" rx="0.752" ry="0.788991" fill="white"/>
<ellipse cx="72.944" cy="7.10091" rx="0.752" ry="0.788991" fill="white"/>
<ellipse cx="78.96" cy="7.10091" rx="0.752" ry="0.788991" fill="white"/>
<ellipse cx="84.976" cy="7.10091" rx="0.752" ry="0.788991" fill="white"/>
<ellipse cx="90.992" cy="7.10091" rx="0.752" ry="0.788991" fill="white"/>
<ellipse cx="97.008" cy="7.10091" rx="0.752" ry="0.788991" fill="white"/>
<ellipse cx="103.024" cy="7.10091" rx="0.752" ry="0.788991" fill="white"/>
<ellipse cx="109.04" cy="7.10091" rx="0.752" ry="0.788991" fill="white"/>
<ellipse cx="115.056" cy="7.10091" rx="0.752" ry="0.788991" fill="white"/>
<ellipse cx="121.072" cy="7.10091" rx="0.752" ry="0.788991" fill="white"/>
<ellipse cx="127.088" cy="7.10091" rx="0.752" ry="0.788991" fill="white"/>
<ellipse cx="133.104" cy="7.10091" rx="0.752" ry="0.788991" fill="white"/>
<ellipse cx="139.12" cy="7.10091" rx="0.752" ry="0.788991" fill="white"/>
<ellipse cx="145.136" cy="7.10091" rx="0.752" ry="0.788991" fill="white"/>
<ellipse cx="151.152" cy="7.10091" rx="0.752" ry="0.788991" fill="white"/>
<ellipse cx="157.168" cy="7.10091" rx="0.752" ry="0.788991" fill="white"/>
<ellipse cx="163.184" cy="7.10091" rx="0.752" ry="0.788991" fill="white"/>
<ellipse cx="169.2" cy="7.10091" rx="0.752" ry="0.788991" fill="white"/>
<ellipse cx="175.216" cy="7.10091" rx="0.752" ry="0.788991" fill="white"/>
<ellipse cx="181.232" cy="7.10091" rx="0.752" ry="0.788991" fill="white"/>
<ellipse cx="187.248" cy="7.10091" rx="0.752" ry="0.788991" fill="white"/>
<ellipse cx="0.752" cy="0.788991" rx="0.752" ry="0.788991" fill="white"/>
<ellipse cx="6.76799" cy="0.788991" rx="0.752" ry="0.788991" fill="white"/>
<ellipse cx="12.784" cy="0.788991" rx="0.752" ry="0.788991" fill="white"/>
<ellipse cx="18.8" cy="0.788991" rx="0.752" ry="0.788991" fill="white"/>
<ellipse cx="24.816" cy="0.788991" rx="0.752" ry="0.788991" fill="white"/>
<ellipse cx="30.832" cy="0.788991" rx="0.752" ry="0.788991" fill="white"/>
<ellipse cx="36.8479" cy="0.788991" rx="0.752" ry="0.788991" fill="white"/>
<ellipse cx="42.8641" cy="0.788991" rx="0.752" ry="0.788991" fill="white"/>
<ellipse cx="48.8801" cy="0.788991" rx="0.752" ry="0.788991" fill="white"/>
<ellipse cx="54.896" cy="0.788991" rx="0.752" ry="0.788991" fill="white"/>
<ellipse cx="60.912" cy="0.788991" rx="0.752" ry="0.788991" fill="white"/>
<ellipse cx="66.928" cy="0.788991" rx="0.752" ry="0.788991" fill="white"/>
<ellipse cx="72.944" cy="0.788991" rx="0.752" ry="0.788991" fill="white"/>
<ellipse cx="78.96" cy="0.788991" rx="0.752" ry="0.788991" fill="white"/>
<ellipse cx="84.976" cy="0.788991" rx="0.752" ry="0.788991" fill="white"/>
<ellipse cx="90.992" cy="0.788991" rx="0.752" ry="0.788991" fill="white"/>
<ellipse cx="97.008" cy="0.788991" rx="0.752" ry="0.788991" fill="white"/>
<ellipse cx="103.024" cy="0.788991" rx="0.752" ry="0.788991" fill="white"/>
<ellipse cx="109.04" cy="0.788991" rx="0.752" ry="0.788991" fill="white"/>
<ellipse cx="115.056" cy="0.788991" rx="0.752" ry="0.788991" fill="white"/>
<ellipse cx="121.072" cy="0.788991" rx="0.752" ry="0.788991" fill="white"/>
<ellipse cx="127.088" cy="0.788991" rx="0.752" ry="0.788991" fill="white"/>
<ellipse cx="133.104" cy="0.788991" rx="0.752" ry="0.788991" fill="white"/>
<ellipse cx="139.12" cy="0.788991" rx="0.752" ry="0.788991" fill="white"/>
<ellipse cx="145.136" cy="0.788991" rx="0.752" ry="0.788991" fill="white"/>
<ellipse cx="151.152" cy="0.788991" rx="0.752" ry="0.788991" fill="white"/>
<ellipse cx="157.168" cy="0.788991" rx="0.752" ry="0.788991" fill="white"/>
<ellipse cx="163.184" cy="0.788991" rx="0.752" ry="0.788991" fill="white"/>
<ellipse cx="169.2" cy="0.788991" rx="0.752" ry="0.788991" fill="white"/>
<ellipse cx="175.216" cy="0.788991" rx="0.752" ry="0.788991" fill="white"/>
<ellipse cx="181.232" cy="0.788991" rx="0.752" ry="0.788991" fill="white"/>
<ellipse cx="187.248" cy="0.788991" rx="0.752" ry="0.788991" fill="white"/>
</svg>
